<svg xmlns="http://www.w3.org/2000/svg" version="1.1" xmlns:xlink="http://www.w3.org/1999/xlink" width="1000" height="1000"><g clip-path="url(#SvgjsClipPath1062)"><rect width="1000" height="1000" fill="#ffffff"></rect><g transform="matrix(12.37126155939752,0,0,12.37126155939752,156.6974917267188,100)"><svg xmlns="http://www.w3.org/2000/svg" version="1.1" xmlns:xlink="http://www.w3.org/1999/xlink" width="55.5" height="64.666"><svg xmlns="http://www.w3.org/2000/svg" width="55.5" height="64.666" viewBox="0 0 55.5 64.666"><ellipse cx="9" cy="8.5" rx="9" ry="8.5" transform="translate(12.002 3)" fill="#9972ab"></ellipse><path d="M51,25.468V35.655a3.969,3.969,0,0,1-.121.972L47.236,51.06A4.5,4.5,0,0,1,42.8,54.332H19.125a4.667,4.667,0,0,1-3.683-1.748L.871,33.907a4.061,4.061,0,0,1,1-5.929,4.772,4.772,0,0,1,6.361.936l3.6,4.618V4.245A4.407,4.407,0,0,1,16.393,0a4.407,4.407,0,0,1,4.554,4.245V25.468h.911V21.223a4.407,4.407,0,0,1,4.554-4.245,4.407,4.407,0,0,1,4.554,4.245v4.245h.911V22.921a4.565,4.565,0,0,1,9.107,0v2.547h.911a4.565,4.565,0,0,1,9.107,0ZM21.857,33.957h-.911V44.145h.911Zm10.018,0h-.911V44.145h.911Zm10.018,0h-.911V44.145h.911Z" transform="translate(4.5 10.334)" fill="#452c63"></path><text transform="translate(0 36)" fill="#452c63" font-size="25" font-family="SegoeUIBlack, Segoe UI"><tspan x="0" y="0">T</tspan></text><text transform="translate(30 27)" fill="#452c63" font-size="25" font-family="SegoeUI-Bold, Segoe UI" font-weight="700"><tspan x="0" y="0">D</tspan></text></svg></svg></g></g><defs><clipPath id="SvgjsClipPath1062"><rect width="1000" height="1000" x="0" y="0" rx="500" ry="500"></rect></clipPath></defs></svg>